<svg width="16" height="16" viewBox="0 0 16 16" fill="none" xmlns="http://www.w3.org/2000/svg">
<path d="M2.92699 1.90326H3.0011L2.94181 1.87238L2.92699 1.90326ZM3.11968 1.81062C3.11968 1.82606 3.11968 1.82606 3.1345 1.82606L3.19379 1.77974C3.16415 1.7643 3.14933 1.7643 3.11968 1.81062ZM2.54161 2.2275L2.58607 2.19662C2.6009 2.18118 2.6009 2.16574 2.6009 2.16574H2.57125L2.54161 2.2275C2.52678 2.2275 2.52678 2.21206 2.54161 2.2275ZM2.8677 1.77974H2.85288L2.82323 1.81062H2.8677V1.77974ZM2.55643 2.1503L2.64536 2.0731C2.66018 2.05766 2.66018 2.04222 2.66018 2.02678H2.61572L2.43785 2.19662L2.4082 2.25838L2.51196 2.16574L2.55643 2.1503Z" fill="#FF4A3F"/>
<path d="M1.42919 3.40106V3.37018C1.43491 3.33615 1.44701 3.30363 1.46482 3.27448C1.48262 3.24534 1.50578 3.22014 1.53295 3.20034L1.66635 3.1077L1.74047 3.01506L1.84422 2.90698L1.90351 2.84522L1.9628 2.7989C2.01575 2.7672 2.05736 2.71843 2.08138 2.65994L2.14067 2.58274C2.19881 2.52335 2.2487 2.45579 2.2889 2.38202L2.31854 2.3357L2.36301 2.30482L2.33336 2.2585L2.39265 2.1813C2.51123 2.08867 2.60017 1.96515 2.71875 1.87251L2.76322 1.82619C2.77898 1.78861 2.80469 1.75648 2.83733 1.73355L2.95591 1.67179H3.0152C3.05883 1.654 3.0954 1.62135 3.11895 1.57915V1.54827C3.1627 1.459 3.22941 1.38415 3.31165 1.33211L3.43023 1.25491L3.45987 1.22403L3.51916 1.16227L3.66738 1.08507H3.69703L3.53398 1.14683L3.32647 1.30123C3.23753 1.37843 3.11895 1.39387 3.05966 1.51739H3.10413C3.00037 1.54827 2.89662 1.59459 2.85215 1.70267C2.80768 1.81075 2.73357 1.79531 2.67428 1.84163C2.66124 1.84513 2.64972 1.85315 2.64164 1.86438C2.63356 1.8756 2.62939 1.88936 2.62981 1.90339C2.51123 1.88795 2.46677 1.98059 2.40748 2.04235V2.16586C2.31073 2.21365 2.22863 2.28848 2.17032 2.38202C1.93316 2.39746 1.93316 2.70626 1.72564 2.76802H1.71082C1.70822 2.77272 1.70685 2.77804 1.70685 2.78346C1.70685 2.78888 1.70822 2.79421 1.71082 2.7989C1.66635 2.7989 1.63671 2.82978 1.65153 2.8761L1.62189 2.9533C1.51813 3.01506 1.53295 3.12314 1.47366 3.21578C1.35508 3.29298 1.31061 3.44738 1.22168 3.55546L1.26615 3.63266L1.29579 3.60178C1.33583 3.53179 1.3804 3.46472 1.42919 3.40106ZM7.98072 0.0505978L8.06965 0.0814776H8.0993C8.16332 0.11528 8.23626 0.126135 8.30681 0.112357C8.40055 0.0944299 8.49703 0.0997189 8.58844 0.127797H8.76631C8.79738 0.120811 8.82958 0.121354 8.86042 0.129385C8.89126 0.137417 8.91992 0.152721 8.94418 0.174117C8.94548 0.176464 8.94617 0.179127 8.94617 0.181837C8.94617 0.184547 8.94548 0.18721 8.94418 0.189557H8.88489C8.88359 0.191904 8.8829 0.194567 8.8829 0.197277C8.8829 0.199987 8.88359 0.20265 8.88489 0.204997H8.98865C9.05063 0.179993 9.11935 0.179993 9.18134 0.204997C9.21098 0.204997 9.19616 0.220437 9.21098 0.235877L9.2851 0.266756H9.25545C9.22581 0.204997 9.18134 0.204997 9.13687 0.204997C8.93741 0.108512 8.71937 0.0609733 8.49951 0.0660377H8.38093C8.20829 0.0110924 8.02733 -0.00985187 7.84732 0.00427811H7.87696L7.98072 0.0505978ZM10.1744 0.606434C10.1933 0.626595 10.2175 0.64034 10.244 0.645853C10.2704 0.651366 10.2979 0.648389 10.3227 0.637314H10.4116C10.336 0.572613 10.2425 0.534748 10.1448 0.529235L10.041 0.498355L10.1152 0.544675L10.1744 0.606434ZM9.67048 0.405716C9.67048 0.421155 9.6853 0.436595 9.70012 0.452035H9.72977L9.80388 0.405716C9.72732 0.356201 9.64134 0.324593 9.5519 0.313076L9.65566 0.374836L9.67048 0.405716ZM10.7673 0.822593L10.8859 0.899793C10.8563 0.853473 10.8266 0.822593 10.7673 0.822593Z" fill="#FF4A3F"/>
<path d="M14.666 11.2913L14.7549 11.0442L14.8439 10.8126C14.8735 10.7354 14.9328 10.5347 14.9624 10.4112C14.9692 10.3721 14.9844 10.3352 15.0069 10.3031H15.0217V10.1333C15.0958 10.1178 15.081 10.0406 15.0958 9.99431L15.2144 9.26864C15.2903 8.95445 15.2903 8.62556 15.2144 8.31136C15.221 8.26703 15.2178 8.2217 15.2049 8.17887C15.1921 8.13604 15.17 8.09686 15.1403 8.06433V7.40041C15.0958 7.26145 15.1848 7.10705 15.081 6.98353L14.9624 6.48946C14.965 6.47933 14.965 6.4687 14.9624 6.45858L14.9328 6.36594C14.9287 6.3562 14.9266 6.34568 14.9266 6.33506C14.9266 6.32443 14.9287 6.31392 14.9328 6.30418H14.9476C14.9921 6.30418 14.9921 6.22698 14.9921 6.16522C14.9832 6.1051 14.9631 6.04739 14.9328 5.99538L14.8883 5.93362C14.867 5.90214 14.8565 5.86403 14.8587 5.82554C14.8638 5.72164 14.8538 5.61754 14.829 5.51674V5.4241C14.7994 5.31602 14.7698 5.1925 14.7401 5.08442L14.7105 5.00723C14.6781 4.9563 14.6578 4.89809 14.6512 4.83739C14.6433 4.79386 14.6282 4.75208 14.6067 4.71387L14.5178 4.55947C14.5057 4.54829 14.4916 4.53979 14.4764 4.53448C14.4611 4.52918 14.4449 4.52717 14.4288 4.52859H14.414V4.48227H14.3844V4.35875H14.3695V4.32787C14.3702 4.32274 14.3702 4.31756 14.3695 4.31243V4.28155C14.3844 4.25067 14.3844 4.23523 14.3547 4.20435C14.3292 4.17795 14.309 4.14644 14.2954 4.11171L14.2658 4.01907C14.2461 3.94947 14.2105 3.88588 14.162 3.83379C14.1307 3.8032 14.1056 3.76647 14.0879 3.72571L13.9842 3.47867C13.9614 3.42324 13.9315 3.3713 13.8952 3.32428L13.8063 3.20076C13.7793 3.16382 13.7592 3.12192 13.747 3.07724L13.7174 3.03092C13.7096 3.01997 13.7042 3.00738 13.7017 2.99404C13.6991 2.9807 13.6994 2.96693 13.7025 2.95372C13.7025 2.94173 13.6999 2.92991 13.6947 2.91919C13.6896 2.90847 13.6821 2.89915 13.6729 2.89196L13.6136 2.84564V2.87652C13.6284 2.9074 13.6136 2.92284 13.5988 2.92284H13.5691L13.6136 3.07724L13.6581 3.15444L13.7618 3.2934H13.747L13.7174 3.26252L13.6877 3.23164C13.6811 3.18646 13.6598 3.14501 13.6275 3.11413C13.5951 3.08324 13.5536 3.06478 13.5098 3.0618V2.95372C13.4654 2.76844 13.2727 2.753 13.1838 2.62948C13.1697 2.59408 13.1475 2.56286 13.119 2.53861C13.0906 2.51436 13.0568 2.49784 13.0207 2.49052L12.9021 2.35156C12.7789 2.16786 12.6229 2.01059 12.4426 1.88836L12.324 1.79573L12.2648 1.74941C12.161 1.64133 12.1165 1.47149 11.9387 1.47149L11.8201 1.39429L11.6867 1.28621C11.6633 1.23111 11.6263 1.18349 11.5794 1.14822C11.5325 1.11294 11.4774 1.0913 11.4199 1.08549C11.3235 0.994153 11.206 0.930328 11.079 0.900211L11.1086 0.93109L11.1827 0.99285L11.3754 1.10093C11.4909 1.16589 11.5959 1.24924 11.6867 1.34797C11.753 1.41492 11.8278 1.47207 11.909 1.51781L11.998 1.59501C12.0128 1.61045 12.0276 1.62589 12.0128 1.64133H11.998L11.8646 1.59501C11.759 1.5742 11.6583 1.53226 11.5681 1.47149L11.3902 1.37885L11.1975 1.27077H11.1679C11.1234 1.25533 11.1086 1.20901 11.0493 1.19357L10.9307 1.16269L10.5602 1.08549C10.5086 1.06019 10.463 1.02327 10.4268 0.97741C10.379 0.975469 10.3327 0.959404 10.2934 0.93109L10.1451 0.869331C10.0038 0.839836 9.86505 0.798529 9.73012 0.745812L9.64118 0.714932L9.49296 0.668612H9.41885L9.3892 0.622292V0.606852H9.15204L9.06311 0.529653L9.00382 0.560533L8.94453 0.591413H8.91488L8.78148 0.514213C8.69255 0.606852 8.61843 0.483333 8.54432 0.498773L8.3961 0.452453C8.36906 0.468715 8.33839 0.477276 8.30716 0.477276C8.27594 0.477276 8.24527 0.468715 8.21823 0.452453H8.04036C8.01942 0.448769 8.00044 0.437405 7.98685 0.420414C7.97326 0.403424 7.96595 0.381929 7.96625 0.359814L8.01071 0.328934H8.09965C8.10792 0.342994 8.11299 0.358838 8.11447 0.375254C8.11447 0.406134 8.14412 0.406134 8.18858 0.406134H8.21823L8.15894 0.313494C8.13846 0.296266 8.11428 0.284458 8.08847 0.279081C8.06266 0.273703 8.03598 0.274916 8.01071 0.282614L7.86249 0.328934H7.84767C7.89213 0.359814 7.87731 0.375254 7.87731 0.406134H7.64015L7.58086 0.375254L7.46228 0.313494H7.44746L7.3437 0.282614H7.00279L7.06208 0.251735L7.18066 0.220855H7.22512L7.47711 0.174535L7.64015 0.143655L7.72909 0.112775H7.56604C7.39981 0.0769915 7.22831 0.0769915 7.06208 0.112775H6.86938L6.36542 0.0973356C6.15791 0.112775 5.95039 0.0973356 5.78735 0.282614C5.41678 0.220855 5.09069 0.390694 4.7646 0.560533L4.4385 0.699492C4.23223 0.729919 4.04037 0.827144 3.89007 0.97741H3.93454L4.00865 0.93109L4.12723 0.853891L4.31992 0.761251L4.46815 0.730372C4.55793 0.665473 4.65842 0.618367 4.7646 0.591413L4.898 0.545093H4.92764C4.94247 0.575973 5.00176 0.545093 5.0314 0.545093H5.06105C5.07587 0.545093 5.07587 0.560533 5.06105 0.560533L4.97211 0.622292L5.12033 0.575973L5.23891 0.545093L5.04622 0.653172L4.85353 0.714932C4.83449 0.720926 4.81681 0.730851 4.80153 0.744113C4.78625 0.757376 4.77369 0.773706 4.7646 0.792131L4.72013 0.869331H4.7646L4.82389 0.838451C4.83911 0.814565 4.85875 0.794073 4.88165 0.778169C4.90455 0.762265 4.93026 0.751265 4.95729 0.745812L5.17962 0.668612H5.25374C5.25767 0.666565 5.26222 0.666228 5.26639 0.667675C5.27056 0.669123 5.27401 0.672237 5.27597 0.676332C5.27794 0.680427 5.27826 0.685167 5.27687 0.689511C5.27548 0.693854 5.27249 0.697444 5.26856 0.699492C5.23891 0.730372 5.17962 0.745812 5.14998 0.776691H5.17962L4.70531 0.91565L4.14205 1.16269C4.04527 1.25346 3.92798 1.3172 3.80114 1.34797C3.72603 1.41774 3.64104 1.47503 3.54915 1.51781L3.43058 1.54869C3.41406 1.58824 3.38728 1.62221 3.35323 1.64676C3.31919 1.67131 3.27924 1.68547 3.23788 1.68765L3.19342 1.76485C3.14697 1.83451 3.08621 1.89253 3.01555 1.93468H3.00072V1.91924L2.97108 1.95012L2.94143 1.981L2.79321 2.01188H2.7191L2.65981 2.08908C2.64499 2.10452 2.64499 2.11996 2.65981 2.11996H2.67463C2.5857 2.2126 2.52641 2.33612 2.40783 2.38244L2.21513 2.61404C2.1262 2.79932 1.94833 2.86108 1.82975 3.01548C1.71117 3.16988 1.62224 3.61763 1.25167 3.67939L1.22203 3.63307L1.19238 3.71027C1.17935 3.75459 1.15931 3.79634 1.13309 3.83379C1.06645 3.93731 1.007 4.04566 0.955225 4.15803C0.942333 4.18139 0.937127 4.2085 0.940403 4.23523C0.94265 4.27857 0.93232 4.32161 0.910758 4.35875L0.836645 4.52859H0.86629C0.910758 4.52859 0.910758 4.57491 0.92558 4.62123L1.04416 4.45139C1.06614 4.40922 1.09645 4.37239 1.13309 4.34331C1.1909 4.31336 1.23774 4.26457 1.2665 4.20435L1.31096 4.15803L1.37025 4.09627L1.45919 3.92643H1.48883C1.50366 3.94187 1.50366 3.94187 1.51848 3.92643L1.54812 3.86467H1.62224V3.98819L1.69635 3.91099C1.70285 3.89926 1.70628 3.88594 1.70628 3.87239C1.70628 3.85884 1.70285 3.84553 1.69635 3.83379C1.69567 3.82543 1.69663 3.81701 1.69918 3.80904C1.70173 3.80108 1.70581 3.79374 1.71117 3.78747C1.7307 3.76502 1.74581 3.73879 1.75564 3.71027C1.76318 3.67887 1.7779 3.64983 1.79855 3.62563C1.8192 3.60143 1.84516 3.5828 1.87422 3.57131L1.91868 3.54043L1.96315 3.49411C2.01537 3.45479 2.05636 3.40142 2.08173 3.33972L2.05209 3.2934C2.05209 3.27796 2.06691 3.24708 2.08173 3.23164H2.15584L2.24478 3.10812L2.33371 3.0618H2.36336C2.05911 3.40522 1.78619 3.77738 1.54812 4.17347C1.21622 4.71245 0.952189 5.29364 0.762533 5.90274H0.688421L0.614308 5.84098C0.584664 5.8101 0.599486 5.7329 0.555019 5.70202H0.569841C0.614308 5.62482 0.555019 5.51674 0.614308 5.43954C0.673598 5.36234 0.629131 5.22338 0.480906 5.25426C0.332682 5.28514 0.25857 5.33146 0.288214 5.48586C0.317859 5.64026 0.13999 5.76378 0.125167 5.93362C0.110345 6.10346 0.0510551 6.01082 0.0807 6.07258V6.67473C0.0955225 6.79825 0.00658776 6.95265 0.19928 6.99897L0.391972 7.13793C0.406794 7.21513 0.317859 7.38497 0.525374 7.33865C0.497977 7.59503 0.483136 7.85269 0.480906 8.11065C0.480906 8.28048 0.495729 8.45032 0.495729 8.62016V8.5584C0.480906 8.49664 0.480906 8.43488 0.466084 8.35768L0.421617 8.404V8.37312H0.347504C0.347504 8.45032 0.332682 8.49664 0.288214 8.51208C0.276232 8.53579 0.271085 8.5626 0.273392 8.58928C0.273392 8.60472 0.288214 8.6356 0.303037 8.62016C0.317859 8.60472 0.362327 8.65104 0.406794 8.68192C0.451261 8.7128 0.377149 8.72824 0.347504 8.7128C0.317859 8.69736 0.317859 8.72824 0.317859 8.75912V8.80544L0.391972 9.03704C0.391972 9.08336 0.377149 9.12968 0.377149 9.176C0.377149 9.21908 0.38733 9.2615 0.406794 9.29952H0.362327V9.2532L0.25857 9.22232V9.12968C0.262716 9.10413 0.262716 9.07803 0.25857 9.05248C0.238198 8.9609 0.223347 8.86808 0.214102 8.77456C0.185937 8.59602 0.176 8.41488 0.184457 8.23416C0.18215 8.20748 0.187298 8.18067 0.19928 8.15697V8.18785C0.206387 8.21308 0.211347 8.23891 0.214102 8.26504C0.213778 8.28663 0.218888 8.30792 0.228925 8.3268C0.243747 8.35768 0.25857 8.38856 0.288214 8.38856C0.317859 8.38856 0.303037 8.37312 0.303037 8.35768C0.301125 8.33142 0.296147 8.3055 0.288214 8.28048C0.26322 8.21647 0.248208 8.14871 0.243747 8.07977C0.238098 8.04035 0.222781 8.00313 0.19928 7.97169C0.176523 7.9294 0.166213 7.88107 0.169635 7.83273V7.70921C0.169635 7.66289 0.184457 7.61657 0.184457 7.57025C0.186344 7.55945 0.185998 7.54835 0.183442 7.5377C0.180886 7.52705 0.176179 7.51709 0.169635 7.50849H0.154812C0.0362327 7.57025 0.0510551 7.53937 0.00658776 7.75553V8.03345C0.00658776 8.14153 -0.0082347 8.2496 0.00658776 8.35768C0.00426003 8.47682 0.0141984 8.59587 0.0362327 8.7128C0.0396805 8.73841 0.0396805 8.76439 0.0362327 8.79C0.0346172 8.83683 0.0396113 8.88365 0.0510551 8.92896C0.0630997 8.99509 0.0680709 9.06241 0.0658776 9.12968C0.0569772 9.21838 0.0671027 9.30803 0.0955225 9.39216C0.0988396 9.4126 0.0988396 9.43348 0.0955225 9.45392C0.0927583 9.4957 0.0977918 9.53765 0.110345 9.57744C0.124397 9.62268 0.134323 9.66921 0.13999 9.7164C0.155881 9.83151 0.180666 9.94511 0.214102 10.0561C0.22901 10.1064 0.238943 10.1581 0.243747 10.2105C0.250532 10.2495 0.265736 10.2865 0.288214 10.3186C0.326061 10.3737 0.351401 10.437 0.362327 10.5038C0.374098 10.5562 0.388948 10.6078 0.406794 10.6582L0.466084 10.8744C0.484412 10.9558 0.514392 11.0339 0.555019 11.106C0.608147 11.2081 0.648022 11.3172 0.673598 11.4302L0.703243 11.5074C0.740888 11.551 0.766499 11.6043 0.777356 11.6618C0.788374 11.707 0.808596 11.7491 0.836645 11.7853C0.853118 11.8078 0.863371 11.8345 0.86629 11.8625C0.881113 11.9089 0.895935 11.9243 0.92558 11.9089H0.940403V12.0478L1.01451 12.2022L1.08863 12.3566L1.25167 12.5419L1.31096 12.6037C1.35543 12.65 1.41472 12.6809 1.44437 12.7581L1.50366 12.8044C1.51596 12.8132 1.5263 12.8246 1.53397 12.8379C1.54165 12.8512 1.54647 12.8661 1.54812 12.8816L1.57777 12.9897C1.59987 13.0408 1.62992 13.0877 1.6667 13.1286L1.72599 13.1595H1.77046C1.77473 13.1611 1.7786 13.1636 1.78177 13.167C1.78495 13.1703 1.78734 13.1744 1.78877 13.1789C1.7902 13.1833 1.79063 13.1881 1.79003 13.1928C1.78942 13.1974 1.7878 13.2019 1.78528 13.2058C1.78281 13.2315 1.78281 13.2573 1.78528 13.283C1.79529 13.3154 1.81639 13.3429 1.84457 13.3602H1.87422C1.93351 13.3448 1.9928 13.3911 2.05209 13.4683H2.06691C2.06691 13.4529 2.08173 13.4529 2.06691 13.4374V13.4065C2.06691 13.3911 2.08173 13.3757 2.09655 13.3911C2.11082 13.4014 2.12237 13.4153 2.13013 13.4315C2.1379 13.4477 2.14165 13.4656 2.14102 13.4837V13.5146C2.15191 13.5791 2.17189 13.6415 2.20031 13.6999C2.27442 13.7462 2.27442 13.7462 2.27442 13.7153C2.27442 13.6845 2.27442 13.6845 2.30407 13.6845H2.36336L2.393 13.7308L2.51158 13.808C2.61534 13.9315 2.77839 13.916 2.89697 13.9932L3.14895 14.2557H3.17859C3.20021 14.3114 3.23235 14.3619 3.27309 14.4043C3.31383 14.4468 3.36235 14.4802 3.41575 14.5028C3.43183 14.5292 3.4536 14.5513 3.47933 14.5674C3.50507 14.5835 3.53405 14.5931 3.56398 14.5954C3.56398 14.6726 3.65291 14.688 3.72702 14.7035C3.75743 14.7392 3.79991 14.7613 3.8456 14.7652H3.87525C3.90353 14.7959 3.93855 14.819 3.97728 14.8324C4.01601 14.8459 4.05729 14.8493 4.09759 14.8424L4.23099 14.966L4.58673 15.1049V15.1358C4.66084 15.3056 4.83871 15.2439 4.95729 15.2902L5.12033 15.352H5.17962C5.35749 15.3983 5.53536 15.4909 5.72806 15.4292C5.72229 15.4493 5.72229 15.4708 5.72806 15.4909C5.8911 15.599 6.08379 15.4909 6.26166 15.5527C6.34228 15.584 6.43006 15.5894 6.51365 15.5681H6.52847L6.64705 15.599H6.69152L6.82492 15.6299H6.86938C6.88065 15.6231 6.89343 15.6195 6.90644 15.6195C6.91945 15.6195 6.93223 15.6231 6.9435 15.6299C7.01548 15.658 7.08996 15.6787 7.16583 15.6916H7.25477C7.27054 15.6822 7.28843 15.6772 7.30665 15.6772C7.32486 15.6772 7.34275 15.6822 7.35853 15.6916H7.9366C8.01594 15.6998 8.09602 15.6946 8.17376 15.6762H8.32199L8.3961 15.6453H8.88524L8.97417 15.6144L9.04829 15.5681H9.37438V15.6608H9.18169L9.00382 15.6916C8.94453 15.7071 8.90006 15.6916 8.85559 15.7071C8.80888 15.7283 8.75833 15.7388 8.70737 15.738L8.51468 15.7843H8.45539C8.38118 15.7703 8.30482 15.7756 8.23305 15.7997H7.96625C7.94527 15.8095 7.92254 15.8146 7.89955 15.8146C7.87655 15.8146 7.85382 15.8095 7.83284 15.7997H7.16583C7.13706 15.794 7.10743 15.7952 7.07918 15.8033C7.05092 15.8113 7.0248 15.8259 7.00279 15.846H6.95832L6.91385 15.8152V15.7688H6.73598C6.67461 15.7425 6.60952 15.7269 6.54329 15.7225H6.17273L6.06897 15.6916L5.99486 15.6608L5.68359 15.599H5.60948L5.53536 15.5681L5.22409 15.46L5.01658 15.3983H4.69048C4.67566 15.3983 4.67566 15.4137 4.67566 15.4292H4.70531C4.898 15.5064 5.09069 15.5681 5.28338 15.6608H5.32785L5.46125 15.6916L5.66877 15.7534H5.86146L5.95039 15.7843L6.05415 15.8306L6.30613 15.8769L6.46918 15.9078L6.63223 15.9387H6.7508L6.86938 15.9696H7.32888L7.47711 16.0004H7.81802L7.96625 15.9696H8.29234C8.35163 15.9696 8.38128 15.9541 8.3961 15.9232H8.54432C8.56615 15.9251 8.5881 15.9219 8.6086 15.9139C8.6291 15.9059 8.64765 15.8933 8.6629 15.8769C8.64808 15.8924 8.6629 15.8924 8.67772 15.9078H8.73701V15.8769C8.73701 15.8615 8.73701 15.8615 8.76666 15.846C8.7963 15.8306 8.85559 15.8306 8.87042 15.8615H8.92971L8.97417 15.8306C9.00382 15.8306 9.00382 15.8306 9.00382 15.846H9.10758L9.18169 15.8152L9.30027 15.7534C9.31509 15.7997 9.35956 15.8152 9.49296 15.7843L9.68565 15.7225H9.86352C9.99692 15.7071 10.16 15.7225 10.2637 15.6144H10.2934L10.3527 15.5681L10.5157 15.5218C10.6208 15.4993 10.7212 15.4574 10.8122 15.3983L10.8714 15.3674H10.8863L11.0197 15.2748L11.079 15.2439L11.1531 15.213H11.2124C11.2717 15.1976 11.2717 15.1976 11.2865 15.1512C11.3013 15.1049 11.2865 15.1358 11.2568 15.1358H11.242L11.3013 15.0586H11.3309C11.3754 15.0432 11.4051 15.0277 11.4347 15.0432H11.4643C11.4962 15.0339 11.5251 15.0162 11.5485 14.9919C11.5719 14.9675 11.5888 14.9373 11.5977 14.9042C11.6422 14.8424 11.7608 14.8733 11.7904 14.7807L12.4278 14.302C12.5909 14.2866 12.6353 14.1322 12.7539 14.0396C12.8725 13.9469 13.0948 13.8697 13.1986 13.6999L13.332 13.6381H13.3468C13.3841 13.6476 13.4235 13.6417 13.4567 13.6215C13.4899 13.6014 13.5142 13.5686 13.5247 13.5301V13.5918C13.6432 13.5301 13.7915 13.6381 13.9101 13.5146C14.0286 13.3911 13.9101 13.0977 14.0583 12.9279L14.162 12.8507C14.2741 12.6508 14.3495 12.4309 14.3844 12.2022L14.414 12.1713C14.414 12.125 14.414 12.0633 14.4733 12.0324C14.4996 12.011 14.5172 11.9801 14.5227 11.9457C14.5282 11.9114 14.5212 11.8762 14.5029 11.8471H14.4733C14.4772 11.8401 14.4793 11.8321 14.4793 11.8239C14.4793 11.8158 14.4772 11.8078 14.4733 11.8008C14.5771 11.8008 14.5919 11.6927 14.6512 11.6464V11.4302C14.6492 11.42 14.6492 11.4095 14.6512 11.3993C14.6593 11.3639 14.6643 11.3277 14.666 11.2913Z" fill="#FF4A3F"/>
<path d="M3.90489 0.977207L3.86042 1.00809L3.80114 1.05441L3.87525 1.02353L3.90489 0.977207ZM4.80906 0.668409H4.82388L4.86835 0.637529H4.80906V0.668409ZM4.42368 0.822808L4.40886 0.838248H4.42368V0.822808ZM1.35543 3.58655L1.29614 3.64831H1.32578C1.33607 3.64226 1.34439 3.63315 1.34967 3.62215C1.35495 3.61115 1.35696 3.59875 1.35543 3.58655ZM1.8001 3.04615C1.8196 3.01796 1.83461 2.98668 1.84457 2.95352C1.81431 2.97273 1.7889 2.9992 1.77046 3.03071C1.75564 3.04615 1.75564 3.06159 1.77046 3.06159L1.8001 3.04615ZM1.62223 3.27775V3.24687C1.59259 3.24687 1.54812 3.29319 1.50365 3.29319V3.32407C1.54812 3.37039 1.56294 3.35495 1.62223 3.27775ZM10.9456 0.961767H10.9604L10.8863 0.915448L10.9456 0.961767ZM10.575 0.745609C10.6491 0.730169 10.6936 0.807368 10.7529 0.822808H10.7677L10.7232 0.791929L10.575 0.714729L10.412 0.637529L10.4564 0.668409L10.575 0.745609ZM9.55225 0.328731H9.53743L9.35956 0.297852H9.43367L9.55225 0.328731ZM9.8487 0.436811L10.0414 0.49857C9.98197 0.464269 9.91635 0.443236 9.8487 0.436811ZM8.51468 0.436811C8.53115 0.414385 8.5414 0.387684 8.54432 0.359611H8.47021L8.42574 0.405931L8.48503 0.452251L8.51468 0.436811ZM9.22615 0.48313C9.22566 0.488264 9.22566 0.493437 9.22615 0.49857V0.48313ZM15.8666 8.5582H15.8221V8.49644H15.8666C15.8814 8.49644 15.8963 8.45012 15.8814 8.43468C15.8666 8.41924 15.8666 8.3266 15.837 8.31116C15.8279 8.30783 15.8201 8.30151 15.8147 8.29316C15.8094 8.2848 15.8068 8.27487 15.8073 8.26484L15.837 8.20308C15.8395 8.19295 15.8395 8.18233 15.837 8.1722H15.8073L15.7777 8.12588C15.7629 8.1722 15.748 8.21852 15.7184 8.23396C15.7164 8.24415 15.7164 8.25465 15.7184 8.26484C15.7184 8.28028 15.7184 8.29572 15.7036 8.29572H15.6887C15.686 8.31182 15.681 8.32743 15.6739 8.34204C15.6448 8.38336 15.6245 8.43076 15.6146 8.481C15.6115 8.49173 15.6112 8.50314 15.6138 8.51402C15.6164 8.5249 15.6218 8.53484 15.6295 8.54276H15.6443C15.6299 8.5821 15.6248 8.62446 15.6295 8.66628V8.72804C15.6281 8.75437 15.6231 8.78037 15.6146 8.80524H15.5998L15.5405 8.91332V9.00596C15.5477 9.06646 15.5318 9.12749 15.4961 9.1758H15.4664L15.4368 9.14492C15.4252 9.12695 15.4179 9.10642 15.4153 9.08498C15.4128 9.06354 15.415 9.04177 15.4219 9.0214C15.4379 8.93496 15.4429 8.84671 15.4368 8.75892C15.4368 8.74348 15.4219 8.72804 15.4219 8.72804C15.4123 8.7414 15.4071 8.75765 15.4071 8.77436V8.867C15.4071 8.89788 15.3923 8.95964 15.3627 8.97508C15.333 8.99052 15.3478 9.00596 15.3478 9.0214L15.3182 9.11404L15.3627 9.19124C15.333 9.22212 15.3034 9.20668 15.2885 9.1758V9.3302H15.333V9.39195C15.3064 9.46083 15.2914 9.53394 15.2885 9.60811C15.2873 9.62868 15.2873 9.64931 15.2885 9.66987C15.2894 9.73802 15.2793 9.80585 15.2589 9.87059C15.2544 9.9013 15.2544 9.93253 15.2589 9.96323L15.2144 10.0713C15.2038 10.1091 15.1889 10.1453 15.17 10.1794L15.1255 10.272L14.9921 10.6889C15.0366 10.8279 14.9328 10.9205 14.8735 11.0131C14.8818 11.0779 14.8754 11.1437 14.8548 11.2054C14.8342 11.2671 14.8 11.3229 14.7549 11.3683V11.43C14.7549 11.4455 14.7698 11.4609 14.7994 11.4455L14.8587 11.3991L14.8883 11.3374H14.918C14.9328 11.3528 14.9476 11.3528 14.9773 11.3219H15.0069C15.0188 11.3335 15.0267 11.3489 15.0294 11.3656C15.0321 11.3824 15.0294 11.3996 15.0217 11.4146C15.0113 11.4548 15.0063 11.4964 15.0069 11.5381C15.0069 11.5535 15.0069 11.569 15.0217 11.569H15.0514C15.0662 11.5844 15.081 11.569 15.0958 11.5227L15.1255 11.4455H15.17C15.2292 11.43 15.2292 11.43 15.2589 11.3528L15.333 11.2139L15.3775 11.1212L15.4368 10.9668C15.4346 10.9116 15.4503 10.8573 15.4812 10.8124C15.4914 10.7998 15.4981 10.7845 15.5007 10.7682C15.5034 10.7519 15.5017 10.7352 15.4961 10.7198C15.4961 10.6889 15.4961 10.6735 15.5257 10.6271L15.5702 10.5654L15.6443 10.411C15.6498 10.3638 15.6597 10.3172 15.6739 10.272C15.703 10.2094 15.7182 10.1408 15.7184 10.0713C15.7276 10.0232 15.7425 9.97655 15.7629 9.93235V9.85515C15.748 9.82427 15.748 9.82427 15.7629 9.76251C15.7777 9.70075 15.7777 9.73163 15.7925 9.73163C15.7979 9.7379 15.8019 9.74524 15.8045 9.7532C15.807 9.76117 15.808 9.76959 15.8073 9.77795L15.837 9.70075C15.8558 9.65699 15.8658 9.60972 15.8666 9.56179V9.51547C15.8666 9.50003 15.8666 9.46915 15.8518 9.46915V9.53091C15.8221 9.53091 15.8073 9.56179 15.7777 9.57723C15.7851 9.53643 15.7901 9.49517 15.7925 9.45371L15.8518 9.42283C15.8634 9.4109 15.8721 9.3963 15.8772 9.3802C15.8824 9.36411 15.8838 9.34698 15.8814 9.3302C15.8798 9.3148 15.8798 9.29927 15.8814 9.28388C15.9015 9.21374 15.9115 9.1409 15.9111 9.06772V9.03684L15.9555 8.88244H15.9704C15.9767 8.87692 15.9815 8.86966 15.9841 8.86148C15.9867 8.85329 15.9871 8.84451 15.9852 8.83612H15.9704C15.9655 8.81456 15.9657 8.7921 15.9708 8.77061C15.976 8.74913 15.986 8.72924 16 8.7126C15.9909 8.67782 15.974 8.64575 15.9509 8.61895C15.9277 8.59214 15.8989 8.57134 15.8666 8.5582ZM1.34061 4.29679C1.344 4.2868 1.344 4.2759 1.34061 4.26591L1.31096 4.23503L1.28132 4.26591L1.23685 4.35855C1.23685 4.40487 1.19238 4.45119 1.19238 4.49751V4.52839H1.20721L1.34061 4.29679ZM15.6146 8.12588H15.6295C15.6609 8.07005 15.6715 8.00406 15.6591 7.9406C15.6565 7.92613 15.6578 7.91117 15.6631 7.89749C15.6683 7.88381 15.6772 7.87198 15.6887 7.8634H15.7036V7.83252L15.6739 7.80164H15.6591C15.6443 7.81708 15.6295 7.84796 15.6146 7.84796C15.5998 7.84796 15.5998 7.8634 15.5998 7.89428V7.9406C15.5881 8.0026 15.5932 8.06676 15.6146 8.12588ZM1.94833 13.4526C1.93351 13.4526 1.94833 13.4835 1.94833 13.499L2.06691 13.6225H2.08173C2.05209 13.5762 2.03726 13.5298 2.05209 13.5144C2.02493 13.5122 1.99907 13.5015 1.97797 13.4835L1.94833 13.4526ZM15.748 7.98692H15.7629C15.7673 7.95622 15.7673 7.92499 15.7629 7.89428C15.7184 7.90972 15.7184 7.90972 15.7184 7.98692C15.7184 8.06412 15.7332 8.00236 15.748 7.98692Z" fill="#FF4A3F"/>
<path d="M15.8071 9.11373C15.8149 9.10278 15.8202 9.09019 15.8228 9.07685C15.8254 9.06351 15.8251 9.04974 15.8219 9.03653C15.8219 9.02109 15.8071 9.00565 15.8071 9.02109H15.7775V9.05197C15.7775 9.11373 15.7923 9.12917 15.8071 9.11373ZM15.8219 7.84766H15.8071V7.9403C15.8212 7.91177 15.8264 7.87939 15.8219 7.84766ZM2.5262 13.8383H2.49656V13.8692L2.5262 13.9001H2.55585V13.8692L2.5262 13.8383ZM15.3624 8.69685C15.3624 8.68141 15.3624 8.68141 15.3476 8.68141L15.3624 8.69685ZM1.45898 12.8965L1.5331 12.9737L1.47381 12.8811L1.45898 12.8965Z" fill="#FF4A3F"/>
<path d="M13.7619 3.16937L13.7323 3.12305H13.7175L13.7619 3.16937ZM0.851562 4.54352C0.860139 4.5356 0.865449 4.52454 0.866385 4.51264V4.54352H0.851562ZM2.42274 13.8229H2.40792C2.42274 13.8383 2.43757 13.8229 2.42274 13.8075V13.8229ZM2.45239 13.931H2.46721L2.45239 13.9155V13.931Z" fill="#FF4A3F"/>
<path d="M10.788 4.416C10.9 4.416 11.036 4.492 11.196 4.644C11.364 4.788 11.448 4.912 11.448 5.016C11.448 5.504 11.432 6.172 11.4 7.02C11.392 7.228 11.384 7.48 11.376 7.776C11.368 8.064 11.364 8.4 11.364 8.784C11.364 10 11.436 10.896 11.58 11.472C11.572 11.664 11.496 11.804 11.352 11.892C11.208 11.972 11.064 12.012 10.92 12.012C10.6 12.012 10.388 11.9 10.284 11.676C10.188 11.452 10.14 11.132 10.14 10.716C10.14 9.172 10.156 7.752 10.188 6.456C9.268 7.48 8.552 8.34 8.04 9.036C8.04 9.036 7.968 9.084 7.824 9.18C7.688 9.3 7.576 9.36 7.488 9.36C7.28 9.36 7.108 9.308 6.972 9.204C6.836 9.1 6.704 8.948 6.576 8.748L6 7.932C5.6 7.372 5.308 6.948 5.124 6.66C5.124 7.396 5.16 8.396 5.232 9.66C5.288 10.388 5.316 10.936 5.316 11.304C5.316 11.496 5.268 11.66 5.172 11.796C5.076 11.924 4.924 11.988 4.716 11.988C4.508 11.988 4.336 11.948 4.2 11.868C4.072 11.788 4.004 11.668 3.996 11.508C4.004 11.372 4.008 11.148 4.008 10.836C4.008 10.212 3.988 9.452 3.948 8.556L3.924 7.908L3.9 7.068C3.892 6.82 3.884 6.532 3.876 6.204C3.868 5.868 3.864 5.504 3.864 5.112C3.864 4.632 4.124 4.392 4.644 4.392C4.804 4.392 4.964 4.432 5.124 4.512C5.292 4.592 5.416 4.708 5.496 4.86C5.56 5.14 5.796 5.604 6.204 6.252C6.612 6.9 7.012 7.508 7.404 8.076C7.756 7.628 8.044 7.292 8.268 7.068C8.652 6.676 8.968 6.312 9.216 5.976C9.472 5.64 9.748 5.236 10.044 4.764C10.116 4.668 10.22 4.588 10.356 4.524C10.492 4.452 10.636 4.416 10.788 4.416Z" fill="white"/>
</svg>
